<svg xmlns="http://www.w3.org/2000/svg" xml:space="preserve" width="128mm" height="128mm" viewBox="0 0 128 128" style="image-rendering:optimizeQuality;shape-rendering:geometricPrecision;text-rendering:geometricPrecision"><defs><style type="text/css">
    .str1 {stroke:#1F1A17;stroke-width:0.0762}
    .str2 {stroke:black;stroke-width:0.0762}
    .str0 {stroke:#1F1A17;stroke-width:0.2}
    .fil4 {fill:silver}
    .fil1 {fill:#C0C0FF}
    .fil0 {fill:white}
    .fil2 {fill:#1F1A17;fill-rule:nonzero}
    .fil3 {fill:silver;fill-rule:nonzero}
   </style></defs><rect class="fil0 str0" x="6.5" y="17.7789" width="10" height="20"/><rect class="fil1 str0" x="26.5" y="17.7789" width="10" height="20"/><rect class="fil0 str0" x="56.5" y="17.7789" width="10" height="20"/><rect class="fil1 str0" x="66.5" y="17.7789" width="10" height="20"/><rect class="fil0 str0" x="76.5" y="17.7789" width="10" height="20"/><rect class="fil0 str0" x="6.5" y="97.7785" width="10" height="20"/><rect class="fil1 str0" x="16.5" y="97.7785" width="10" height="20"/><rect class="fil0 str0" x="27" y="97.7785" width="10" height="20"/><rect class="fil1 str0" x="37.5" y="97.7785" width="10" height="20"/><rect class="fil0 str0" x="48" y="97.7785" width="10" height="20"/><rect class="fil1 str0" x="58" y="97.7785" width="10" height="20"/><rect class="fil0 str0" x="68" y="97.7785" width="10" height="20"/><rect class="fil1 str0" x="78" y="97.7785" width="10" height="20"/><rect class="fil0 str0" x="88.5" y="97.7785" width="10" height="20"/><rect class="fil1 str0" x="98.5" y="97.7785" width="10" height="20"/><path class="fil2" d="M23.1358 42.9409l-4.541 0c-0.632 0-1.0938-0.0868-1.3854-0.2604-0.1901-0.1143-0.3404-0.2678-0.4508-0.4604-0.1106-0.1926-0.1967-0.4561-0.2586-0.7906l0.1525 0c0.1149 0.4318 0.3424 0.7493 0.6828 0.9525 0.1458 0.0805 0.3225 0.1366 0.5303 0.1683 0.2077 0.0318 0.4508 0.0476 0.7292 0.0476l4.541 0 0 0.343zm3.2482 1.1874c-0.1149-0.4403-0.3336-0.7578-0.6562-0.9525-0.0928-0.0593-0.2343-0.1132-0.4243-0.1619-0.1901-0.0487-0.3646-0.073-0.5237-0.073l-1.644 0 0-0.343 1.5512 0c0.5568 0 0.9811 0.1249 1.2728 0.3747 0.1458 0.1228 0.2497 0.2381 0.3116 0.3461 0.0618 0.1079 0.1391 0.3058 0.2319 0.5937 0.1061-0.3133 0.1868-0.5175 0.242-0.6128 0.0553-0.0952 0.1558-0.2042 0.3016-0.327 0.2917-0.2498 0.716-0.3747 1.2728-0.3747l1.5777 0 0 0.343-1.6705 0c-0.1591 0-0.3315 0.0243-0.5171 0.073-0.1856 0.0487-0.3292 0.1026-0.4308 0.1619-0.3227 0.1947-0.5414 0.5122-0.6563 0.9525l-0.2387 0zm3.5134-1.5304l4.5078 0c0.601 0 1.0209-0.0719 1.2595-0.2159 0.3404-0.2032 0.5679-0.5207 0.6829-0.9525l0.1524 0c-0.053 0.3175-0.1348 0.5747-0.2452 0.7716-0.1106 0.1968-0.2652 0.3566-0.4641 0.4794-0.2916 0.1736-0.7535 0.2604-1.3855 0.2604l-4.5078 0 0-0.343z"/><path class="fil2" d="M53.7028 93.185l-3.9026 0c-0.5164 0-0.8773 0.064-1.0824 0.1919-0.2925 0.1806-0.488 0.4628-0.5868 0.8467l-0.131 0c0.0531-0.3011 0.1272-0.5372 0.2221-0.7084 0.095-0.1712 0.2241-0.3057 0.3875-0.4036 0.2506-0.1543 0.6475-0.2314 1.1906-0.2314l3.9026 0 0 0.3048zm0 0l0-0.3048 0 0 5.7828 0 0 0.3048-5.7828 0zm5.7029 0l0-0.3048 0 0 5.7827 0 0 0.3048-5.7827 0zm8.6997-1.3603c0.0987 0.3913 0.2867 0.6736 0.564 0.8467 0.0873 0.0526 0.2108 0.1006 0.3702 0.1439 0.1596 0.0433 0.3077 0.0649 0.4445 0.0649l1.4357 0 0 0.3048-1.356 0c-0.4785 0-0.8432-0.111-1.0938-0.333-0.0912-0.079-0.1605-0.1496-0.208-0.2117-0.0475-0.0621-0.0807-0.1166-0.0997-0.1637-0.019-0.047-0.0722-0.2003-0.1595-0.46-0.0835 0.2597-0.1491 0.4337-0.1966 0.5221-0.0474 0.0884-0.1377 0.1929-0.2706 0.3133-0.2506 0.222-0.6153 0.333-1.0938 0.333l-1.3332 0 0-0.3048 1.4129 0c0.1368 0 0.2867-0.0216 0.4501-0.0649 0.1633-0.0433 0.2848-0.0913 0.3646-0.1439 0.2773-0.1731 0.4653-0.4554 0.5641-0.8467l0.2051 0zm2.8144 1.3603l0-0.3048 0 0 5.7827 0 0 0.3048-5.7827 0zm5.7029 0l0-0.3048 0 0 5.7827 0 0 0.3048-5.7827 0zm5.7028-0.3048l3.8742 0c0.5431 0 0.94 0.0771 1.1907 0.2314 0.1709 0.1016 0.3038 0.2408 0.3988 0.4177 0.095 0.1769 0.1652 0.4083 0.2107 0.6943l-0.131 0c-0.0987-0.3839-0.2943-0.6661-0.5868-0.8467-0.2051-0.1279-0.5659-0.1919-1.0824-0.1919l-3.8742 0 0-0.3048z"/><path class="fil2" d="M52.2028 42.9229l-3.9026 0c-0.5431 0-0.94-0.0771-1.1906-0.2314-0.1634-0.1016-0.2925-0.238-0.3875-0.4092-0.0949-0.1713-0.169-0.4055-0.2221-0.7028l0.131 0c0.0988 0.3839 0.2943 0.6661 0.5868 0.8467 0.1254 0.0715 0.2773 0.1213 0.4557 0.1496 0.1786 0.0282 0.3875 0.0423 0.6267 0.0423l3.9026 0 0 0.3048zm14.1975 1.0555c-0.0988-0.3913-0.2868-0.6736-0.5641-0.8467-0.0798-0.0526-0.2013-0.1006-0.3646-0.1439-0.1634-0.0433-0.3133-0.0649-0.4501-0.0649l-1.4129 0 0-0.3048 1.3332 0c0.4785 0 0.8432 0.111 1.0938 0.333 0.1254 0.1091 0.2146 0.2117 0.2678 0.3076 0.0532 0.096 0.1196 0.2719 0.1994 0.5278 0.0912-0.2785 0.1604-0.46 0.208-0.5447 0.0474-0.0847 0.1338-0.1816 0.2592-0.2907 0.2506-0.222 0.6153-0.333 1.0938-0.333l1.356 0 0 0.3048-1.4357 0c-0.1368 0-0.2849 0.0216-0.4445 0.0649-0.1594 0.0433-0.2829 0.0913-0.3702 0.1439-0.2773 0.1731-0.4653 0.4554-0.564 0.8467l-0.2051 0zm14.4252-1.3603l3.8742 0c0.5165 0 0.8773-0.064 1.0824-0.1919 0.2925-0.1806 0.4881-0.4628 0.5868-0.8467l0.131 0c-0.0455 0.2823-0.1157 0.5108-0.2107 0.6858-0.095 0.175-0.2279 0.3171-0.3988 0.4262-0.2507 0.1543-0.6476 0.2314-1.1907 0.2314l-3.8742 0 0-0.3048z"/><path class="fil2" d="M52.2028 42.9229l0-0.3048 0 0 5.7828 0 0 0.3048-5.7828 0zm5.7029 0l0-0.3048 0 0 5.7827 0 0 0.3048-5.7827 0zm11.5141 0l0-0.3048 0 0 5.7827 0 0 0.3048-5.7827 0zm5.7029 0l0-0.3048 0 0 5.7827 0 0 0.3048-5.7827 0z"/><path class="fil2" d="M13.1358 92.8638l-4.541 0c-0.601 0-1.0209 0.0719-1.2595 0.2159-0.3404 0.2032-0.5679 0.5207-0.6828 0.9525l-0.1525 0c0.0619-0.3387 0.148-0.6044 0.2586-0.797 0.1104-0.1926 0.2607-0.3439 0.4508-0.454 0.2916-0.1736 0.7534-0.2604 1.3854-0.2604l4.541 0 0 0.343zm3.4869-1.5304c0.1149 0.4403 0.3336 0.7578 0.6563 0.9525 0.1016 0.0593 0.2452 0.1132 0.4308 0.1619 0.1856 0.0487 0.358 0.073 0.5171 0.073l1.6705 0 0 0.343-1.5777 0c-0.5568 0-0.9811-0.1249-1.2728-0.3747-0.106-0.0889-0.1867-0.1683-0.242-0.2381-0.0552-0.0699-0.0938-0.1313-0.1159-0.1842-0.0222-0.0529-0.084-0.2254-0.1857-0.5175-0.0972 0.2921-0.1735 0.4879-0.2287 0.5874-0.0552 0.0995-0.1601 0.2169-0.3148 0.3524-0.2917 0.2498-0.716 0.3747-1.2728 0.3747l-1.5512 0 0-0.343 1.644 0c0.1591 0 0.3336-0.0243 0.5237-0.073 0.19-0.0487 0.3315-0.1026 0.4243-0.1619 0.3226-0.1947 0.5413-0.5122 0.6562-0.9525l0.2387 0zm3.2747 1.1874l4.5078 0c0.632 0 1.0939 0.0868 1.3855 0.2604 0.1989 0.1143 0.3535 0.2709 0.4641 0.4699 0.1104 0.199 0.1922 0.4593 0.2452 0.7811l-0.1524 0c-0.115-0.4318-0.3425-0.7493-0.6829-0.9525-0.2386-0.144-0.6585-0.2159-1.2595-0.2159l-4.5078 0 0-0.343z"/><path class="fil3 str1" d="M69.1501 67.2865c0 0.4445-0.0918 0.8636-0.2738 1.2573-0.1919 0.4106-0.4628 0.7422-0.81 0.9962l0.4586 0.3599-1.476 0.3965 0.1369-1.4676 0.4135 0.326c0.4275-0.3768 0.6406-0.9017 0.6406-1.5748 0-0.8622-0.4106-1.5367-1.2319-2.0207l0.5207-1.0132c0.508 0.2455 0.9073 0.6237 1.1994 1.1359 0.2809 0.4911 0.422 1.0259 0.422 1.6045zm-3.1595 1.9967l-0.5207 1.0132c-0.5038-0.2455-0.9017-0.6237-1.1938-1.1374-0.2851-0.4896-0.4262-1.0244-0.4262-1.603 0-0.4445 0.0917-0.8636 0.2766-1.2573 0.1933-0.4106 0.4614-0.7422 0.8057-0.9962l-0.4586-0.3641 1.4761-0.3923-0.1369 1.4676-0.4135-0.3274c-0.4261 0.3782-0.6406 0.9031-0.6406 1.5762 0 0.8622 0.4106 1.5353 1.2319 2.0207z"/><polygon class="fil3 str1" points="66.4443,60.8382 68.077,58.0104 66.8535,58.0104 66.8535,54.7196 66.0351,54.7196 66.0351,58.0104 64.8116,58.0104 "/><polygon class="fil3 str1" points="66.4443,80.8382 68.0769,78.0103 66.8535,78.0103 66.8535,74.7196 66.035,74.7196 66.035,78.0103 64.8116,78.0103 "/><polygon class="fil3 str1" points="22.9911,61.4794 25.1761,59.0529 23.9793,58.7985 24.6635,55.5796 23.863,55.4094 23.1788,58.6283 21.982,58.3739 "/><polygon class="fil3 str1" points="20.912,71.2609 23.0969,68.8343 21.9002,68.58 22.5844,65.3611 21.7838,65.1909 21.0997,68.4098 19.9029,68.1554 "/><polygon class="fil3 str1" points="18.8329,81.0424 21.0178,78.6158 19.8211,78.3614 20.5052,75.1425 19.7047,74.9724 19.0205,78.1913 17.8238,77.9369 "/><polygon class="fil3 str1" points="28.2276,84.5998 28.6821,81.3663 27.5477,81.8247 26.3149,78.7735 25.5561,79.0801 26.7889,82.1312 25.6545,82.5896 "/><polygon class="fil3 str1" points="16.9894,56.7843 17.4439,53.5508 16.3095,54.0091 15.0767,50.958 14.3179,51.2645 15.5507,54.3157 14.4163,54.7741 "/><polygon class="fil3 str1" points="41.5,79.8386 43.1327,77.0108 41.9092,77.0108 41.9092,73.72 41.0908,73.72 41.0908,77.0108 39.8673,77.0108 "/><polygon class="fil3 str1" points="41.5,60.8386 43.1327,58.0108 41.9092,58.0108 41.9092,54.72 41.0908,54.72 41.0908,58.0108 39.8673,58.0108 "/><path class="fil4 str1" d="M18.8261 6.7501c-0.8131 0-1.0919-0.5771-1.0919-1.2817 0-0.7019 0.5311-1.4241 1.2343-1.4241 0.5458 0 0.9019 0.6672 0.9019 1.2817 0 0.592-0.5204 1.4241-1.0443 1.4241zm-2.6584 4.2249c0-0.2075 0.1654-0.3323 0.3409-0.3323 0.1755 0 0.3237 0.1469 0.3237 0.3323 0 0.1853-0.1259 0.3323-0.3323 0.3323-0.2065 0-0.3323-0.1249-0.3323-0.3323zm-1.9463 10.9657c0.1626-0.1871 2.7411-9.7297 2.9432-10.7283 0.202-0.9987 0.4898-2.6539 0.712-3.9876 0-0.0916 0.015-0.0845 0.0475-0.1424 0.2969 0.0692 0.3543 0.2008 0.8122 0.1874 1.0308-0.0304 1.6563-1.1262 1.6563-2.0388 0-0.9126-0.6216-1.7089-1.5191-1.7089-0.9123 0-1.5657 1.1236-1.7089 2.0412l-0.6527 4.1808c-0.1207 0.7735-0.5759 0.1381-0.8143 1.4561-0.6444 3.5605-1.0792 7.1411-1.4762 10.7405z"/><path class="fil4 str1" d="M14.1739 6.7501c-0.5974 0-1.0443-0.7344-1.0443-1.2817 0-0.5473 0.1185-1.4241 0.9019-1.4241 0.7069 0 1.2343 0.8957 1.2343 1.519 0 0.7272-0.4945 1.1868-1.0919 1.1868zm1.709-0.807c0-0.4614-0.2953-1.3988-0.5112-1.6725-0.3077-0.3902-0.7076-0.7485-1.3876-0.7485-1.0265 0-1.3767 1.1266-1.3767 1.9463 0 0.8542 0.7879 1.8039 1.6615 1.8039l0.0474 0c0.3986 0 0.5268-0.1705 0.7596-0.1899l0.6312 3.6349c-0.0352-0.655 0.7724-0.5971 0.698-1.1664l-0.5203-3.4182-0.0019-0.1896z"/><path class="fil4 str1" d="M17.9641 15.4212l-0.6571-4.0664-0.7595 2.8956 2.2311 7.7852-0.0585-0.616-0.1489-1.138c-0.1876-1.6223-0.3466-3.2479-0.6071-4.8604z"/><rect class="fil0 str0" x="16.5" y="17.7789" width="10" height="20"/><path class="fil4 str1" d="M38.8261 6.7501c-0.8131 0-1.0919-0.5771-1.0919-1.2817 0-0.7019 0.5311-1.4241 1.2343-1.4241 0.5458 0 0.9019 0.6672 0.9019 1.2817 0 0.592-0.5204 1.4241-1.0443 1.4241zm-2.6584 4.2249c0-0.2075 0.1654-0.3323 0.3409-0.3323 0.1755 0 0.3237 0.1469 0.3237 0.3323 0 0.1853-0.1259 0.3323-0.3323 0.3323-0.2065 0-0.3323-0.1249-0.3323-0.3323zm-1.9463 10.9657c0.1626-0.1871 2.7411-9.7297 2.9432-10.7283 0.202-0.9987 0.4898-2.6539 0.712-3.9876 0-0.0916 0.015-0.0845 0.0475-0.1424 0.2969 0.0692 0.3543 0.2008 0.8122 0.1874 1.0308-0.0304 1.6563-1.1262 1.6563-2.0388 0-0.9126-0.6216-1.7089-1.5191-1.7089-0.9123 0-1.5657 1.1236-1.7089 2.0412l-0.6527 4.1808c-0.1207 0.7735-0.5759 0.1381-0.8143 1.4561-0.6444 3.5605-1.0792 7.1411-1.4762 10.7405z"/><path class="fil4 str1" d="M34.1739 6.7501c-0.5974 0-1.0443-0.7344-1.0443-1.2817 0-0.5473 0.1185-1.4241 0.9019-1.4241 0.7069 0 1.2343 0.8957 1.2343 1.519 0 0.7272-0.4945 1.1868-1.0919 1.1868zm1.709-0.807c0-0.4614-0.2953-1.3988-0.5112-1.6725-0.3077-0.3902-0.7076-0.7485-1.3876-0.7485-1.0265 0-1.3767 1.1266-1.3767 1.9463 0 0.8542 0.7879 1.8039 1.6615 1.8039l0.0474 0c0.3986 0 0.5268-0.1705 0.7596-0.1899l0.6312 3.6349c-0.0352-0.655 0.7724-0.5971 0.698-1.1664l-0.5203-3.4182-0.0019-0.1896z"/><path class="fil4 str1" d="M37.9641 15.4212l-0.6571-4.0664-0.7595 2.8956 2.2311 7.7852-0.0585-0.616-0.1489-1.138c-0.1876-1.6223-0.3466-3.2479-0.6071-4.8604z"/><rect class="fil1 str0" x="36.5" y="17.7789" width="10" height="20"/><path class="fil4 str1" d="M48.8261 6.7501c-0.8131 0-1.0919-0.5771-1.0919-1.2817 0-0.7019 0.5311-1.4241 1.2343-1.4241 0.5458 0 0.9019 0.6672 0.9019 1.2817 0 0.592-0.5204 1.4241-1.0443 1.4241zm-2.6584 4.2249c0-0.2075 0.1654-0.3323 0.3409-0.3323 0.1755 0 0.3237 0.1469 0.3237 0.3323 0 0.1853-0.1259 0.3323-0.3323 0.3323-0.2065 0-0.3323-0.1249-0.3323-0.3323zm-1.9463 10.9657c0.1626-0.1871 2.7411-9.7297 2.9432-10.7283 0.202-0.9987 0.4898-2.6539 0.712-3.9876 0-0.0916 0.015-0.0845 0.0475-0.1424 0.2969 0.0692 0.3543 0.2008 0.8122 0.1874 1.0308-0.0304 1.6563-1.1262 1.6563-2.0388 0-0.9126-0.6216-1.7089-1.5191-1.7089-0.9123 0-1.5657 1.1236-1.7089 2.0412l-0.6527 4.1808c-0.1207 0.7735-0.5759 0.1381-0.8143 1.4561-0.6444 3.5605-1.0792 7.1411-1.4762 10.7405z"/><path class="fil4 str1" d="M44.1739 6.7501c-0.5974 0-1.0443-0.7344-1.0443-1.2817 0-0.5473 0.1185-1.4241 0.9019-1.4241 0.7069 0 1.2343 0.8957 1.2343 1.519 0 0.7272-0.4945 1.1868-1.0919 1.1868zm1.709-0.807c0-0.4614-0.2953-1.3988-0.5112-1.6725-0.3077-0.3902-0.7076-0.7485-1.3876-0.7485-1.0265 0-1.3767 1.1266-1.3767 1.9463 0 0.8542 0.7879 1.8039 1.6615 1.8039l0.0474 0c0.3986 0 0.5268-0.1705 0.7596-0.1899l0.6312 3.6349c-0.0352-0.655 0.7724-0.5971 0.698-1.1664l-0.5203-3.4182-0.0019-0.1896z"/><path class="fil4 str1" d="M47.9641 15.4212l-0.6571-4.0664-0.7595 2.8956 2.2311 7.7852-0.0585-0.616-0.1489-1.138c-0.1876-1.6223-0.3466-3.2479-0.6071-4.8604z"/><rect class="fil1 str0" x="46.5" y="17.7789" width="10" height="20"/><rect class="fil0 str0" x="91.5" y="17.7789" width="10" height="20"/><rect class="fil1 str0" x="101.5" y="17.7789" width="10" height="20"/><rect class="fil0 str0" x="111.5" y="17.7789" width="10" height="20"/><rect class="fil0 str0" x="108.5" y="97.7785" width="10" height="20"/><polygon class="fil3 str1" points="105.5,59.4854 107.465,56.8777 106.25,56.7286 106.652,53.4623 105.839,53.3625 105.438,56.6288 104.224,56.4797 "/><polygon class="fil3 str1" points="104.281,69.4109 106.246,66.8031 105.032,66.6541 105.433,63.3878 104.62,63.288 104.22,66.5543 103.005,66.4052 "/><polygon class="fil3 str1" points="103.062,79.3364 105.027,76.7286 103.813,76.5794 104.214,73.3132 103.402,73.2135 103.001,76.4798 101.786,76.3306 "/><rect class="fil4 str2" transform="matrix(-0.225594 -0.390741 0.506761 -0.292579 51.5827 124.689)" width="13.2982" height="5.9813" rx="1.0764" ry="1.0764"/><rect class="fil4 str2" transform="matrix(-0.339582 -0.588173 0.588732 -0.339905 48.6992 119.194)" width="1.4724" height="4.413" rx="0.3178" ry="0.3178"/><path class="fil4 str2" d="M48.5321 117.905c-1.2028-3.9119-1.2028-3.9369 1.7321-1l-1.7321 1z"/><rect class="fil4 str2" transform="matrix(-0.225594 -0.390741 0.506761 -0.292579 30.5827 124.689)" width="13.2982" height="5.9813" rx="1.0764" ry="1.0764"/><rect class="fil4 str2" transform="matrix(-0.339582 -0.588173 0.588732 -0.339905 27.6992 119.194)" width="1.4724" height="4.413" rx="0.3178" ry="0.3178"/><path class="fil4 str2" d="M27.5321 117.905c-1.2028-3.9119-1.2028-3.9369 1.7321-1l-1.7321 1z"/><rect class="fil4 str2" transform="matrix(-0.225594 -0.390741 0.506761 -0.292579 41.0827 124.689)" width="13.2982" height="5.9813" rx="1.0764" ry="1.0764"/><rect class="fil4 str2" transform="matrix(-0.339582 -0.588173 0.588732 -0.339905 38.1992 119.194)" width="1.4724" height="4.413" rx="0.3178" ry="0.3178"/><path class="fil4 str2" d="M38.0321 117.905c-1.2028-3.9119-1.2028-3.9369 1.7321-1l-1.7321 1z"/><rect class="fil4 str2" transform="matrix(-0.225594 -0.390741 0.506761 -0.292579 92.0828 124.689)" width="13.2982" height="5.9813" rx="1.0764" ry="1.0764"/><rect class="fil4 str2" transform="matrix(-0.339582 -0.588173 0.588732 -0.339905 89.1993 119.194)" width="1.4724" height="4.413" rx="0.3178" ry="0.3178"/><path class="fil4 str2" d="M89.0322 117.905c-1.2028-3.9119-1.2028-3.9369 1.7321-1l-1.7321 1z"/></svg>
